# xmcd
#
# Track frame offsets:
#	150
#	8680
#	23936
#	37833
#	52483
#	66362
#	74289
#	87477
#	100787
#	112933
#	125799
#	149972
#	166654
#	185517
#	203849
#	219233
#	237945
#
# Disc length: 3401 seconds
# Revision: 0
# Processed by: cddbd v1.5.2PL0 Copyright (c) Steve Scherf et al.
# Submitted via: dBpowerAMP V12.0
#
DISCID=f80d4711
DTITLE=The blues brothers - The blues brothers complete
DYEAR=1900
DGENRE=Blues
TTITLE0=I can't turn you loose
TTITLE1=Everybody needs somebody to love
TTITLE2=Gimme some lovin'
TTITLE3=Think
TTITLE4=Soul man
TTITLE5=Soul finger
TTITLE6=Messin' with the kid
TTITLE7=Hey bartender
TTITLE8=[I got everything i need] Almost
TTITLE9=Rubber biscuit
TTITLE10=Shotgun blues
TTITLE11=Groove me
TTITLE12=I don't know
TTITLE13="B" movie box car blues
TTITLE14=Flip, flop and fly
TTITLE15=She caught the Katy
TTITLE16=Peter Gunn theme
EXTD=
EXTT0=
EXTT1=
EXTT2=
EXTT3=
EXTT4=
EXTT5=
EXTT6=
EXTT7=
EXTT8=
EXTT9=
EXTT10=
EXTT11=
EXTT12=
EXTT13=
EXTT14=
EXTT15=
EXTT16=
PLAYORDER=
